<svg width="70" height="47" viewBox="0 0 70 47" fill="none" xmlns="http://www.w3.org/2000/svg">
<path d="M64.284 20.7336V22.9032H65.0697C65.8986 22.9032 66.5482 22.594 66.5482 21.7693C66.5482 21.2234 66.2802 20.7312 65.2354 20.7312C64.9084 20.7312 64.7313 20.7196 64.284 20.7336ZM62.1128 28.3978V18.6061C62.6419 18.6061 65.0697 18.6061 65.3422 18.6061C67.9335 18.6061 68.8555 19.9346 68.8555 21.7411C68.8555 23.5594 67.77 24.3021 67.2544 24.5693L70.0001 28.3978H67.368L65.0834 25.0027H64.284V28.3978H62.1128Z" fill="#FF4438"/>
<path d="M59.1547 24.185C59.1547 27.1794 57.3404 28.3978 55.3384 28.3978C52.9365 28.3978 51.2673 26.9567 51.2673 24.0865V18.6061H53.4035V23.611C53.4035 25.1362 53.8436 26.2984 55.3384 26.2984C56.6321 26.2984 57.0187 25.3049 57.0187 23.7374V18.6061H59.1547V24.185Z" fill="#FF4438"/>
<path d="M46.338 47H0V0H46.338V16.0808H44.1899V2.17882H2.14588V44.8212H44.1899V30.8142H46.338V47Z" fill="#FF4438"/>
<path d="M36.7965 28.3978L32.5055 22.5218V28.3978H30.5645V18.6061H32.2199L36.5131 24.5078L36.5087 18.6061H38.4475L38.4519 28.3978H36.7965Z" fill="#FF4438"/>
<path d="M41.4099 18.6061H48.3114V20.704H45.8117V28.3978H43.9076V20.704H41.4099V18.6061Z" fill="#FF4438"/>
<path d="M9.85913 18.6061H11.956V22.8721L14.9565 18.6061H17.4723L14.0266 23.125L17.7465 28.3978H15.0881L11.956 23.7385V28.3978H9.85913V18.6061Z" fill="#FF4438"/>
<path d="M23.1683 26.3699C24.7545 26.3699 25.5775 25.0981 25.5775 23.502C25.5775 21.7704 24.5159 20.634 23.1683 20.634C21.7858 20.634 20.7612 21.7704 20.7612 23.502C20.7612 25.1237 21.8331 26.3699 23.1683 26.3699ZM23.1683 18.6061C25.7091 18.6061 27.6059 20.4846 27.6059 23.502C27.6059 26.3699 25.7091 28.3978 23.1683 28.3978C20.6296 28.3978 18.7327 26.5169 18.7327 23.502C18.7327 20.7553 20.5103 18.6061 23.1683 18.6061Z" fill="#FF4438"/>
</svg>
