<svg width="30" height="30" viewBox="0 0 30 30" fill="none" xmlns="http://www.w3.org/2000/svg">
<circle cx="15" cy="15" r="15" fill="#097AD7"/>
<path d="M15.024 8.95004C11.7042 8.95008 8.99824 11.6422 8.99824 14.946C8.99824 15.9978 9.27427 17.0198 9.79051 17.9229L8.95177 20.9868L8.92892 21.0703L9.01265 21.0484L12.1594 20.2254C13.0367 20.6972 14.0214 20.948 15.0241 20.948C18.344 20.948 21.05 18.2559 21.05 14.952C21.05 13.3488 20.4236 11.842 19.2866 10.7107C18.7291 10.1504 18.0651 9.70613 17.3332 9.40385C16.6014 9.10157 15.8164 8.9473 15.024 8.95004ZM15.024 8.95004C15.0241 8.95004 15.0241 8.95004 15.0241 8.95004V9.00004L15.0239 8.95004C15.024 8.95004 15.024 8.95004 15.024 8.95004ZM15.9861 17.7658C16.352 17.8829 16.686 17.864 16.9486 17.8275L16.9489 17.8275C17.103 17.8051 17.3314 17.7114 17.5355 17.5809C17.7381 17.4513 17.9297 17.2772 17.9959 17.0868C18.0606 16.9088 18.0932 16.7441 18.1041 16.6145C18.1096 16.5497 18.1097 16.4928 18.1054 16.4469C18.1013 16.4034 18.0927 16.3623 18.0753 16.3351C18.0471 16.291 18.0046 16.262 17.9556 16.2361C17.9263 16.2206 17.8907 16.2042 17.8509 16.186C17.8259 16.1745 17.7992 16.1622 17.7713 16.1489C17.7353 16.1317 17.6646 16.0974 17.5763 16.0546C17.3001 15.9207 16.8514 15.7032 16.7495 15.6617L16.7495 15.6616L16.747 15.6608C16.6793 15.6373 16.61 15.6149 16.5427 15.6223C16.4702 15.6303 16.409 15.6713 16.3522 15.751L16.3517 15.7518C16.2511 15.899 15.9696 16.2329 15.8851 16.329L15.885 16.329L15.8841 16.3301C15.847 16.375 15.814 16.3938 15.7789 16.3978C15.7416 16.4022 15.692 16.3909 15.62 16.3536L15.62 16.3536L15.6185 16.3529C15.5959 16.3421 15.5664 16.3295 15.5308 16.3142C15.3234 16.2254 14.9082 16.0477 14.4302 15.6227L14.4302 15.6226C13.9906 15.2326 13.6986 14.753 13.608 14.6029C13.5716 14.5378 13.5727 14.4962 13.584 14.465C13.5969 14.4292 13.626 14.3976 13.6664 14.3575C13.7133 14.3109 13.7696 14.2431 13.8229 14.179C13.847 14.15 13.8705 14.1218 13.8922 14.0967C13.9625 14.0149 13.996 13.948 14.0376 13.8647C14.0415 13.8568 14.0456 13.8487 14.0497 13.8405L14.0497 13.8405L14.0502 13.8394C14.1077 13.7178 14.0773 13.6165 14.0376 13.5376C14.0027 13.468 13.7022 12.7388 13.5811 12.4374L13.5811 12.4374L13.5808 12.4367C13.5181 12.2871 13.4497 12.2114 13.3761 12.1762C13.3202 12.1494 13.2623 12.149 13.2243 12.1487C13.215 12.1486 13.2069 12.1486 13.2003 12.1481L13.2003 12.148H13.197H12.9075C12.7935 12.148 12.6225 12.1882 12.4728 12.3501L12.4728 12.3501L12.4721 12.3509C12.462 12.3624 12.4502 12.3751 12.4373 12.3893C12.2811 12.5598 11.941 12.931 11.941 13.626C11.941 14.0033 12.079 14.3716 12.2238 14.6553C12.3675 14.9367 12.5201 15.1392 12.5589 15.1905L12.5596 15.1915C12.5627 15.1959 12.5675 15.2028 12.5738 15.2121C12.718 15.422 13.6867 16.8318 15.1309 17.4519C15.4888 17.6088 15.7681 17.6994 15.9861 17.7658ZM15.9861 17.7658C15.986 17.7657 15.9859 17.7657 15.9857 17.7656L16.001 17.718L15.9865 17.7658C15.9864 17.7658 15.9862 17.7658 15.9861 17.7658ZM12.2979 19.0436L10.5003 19.5137L10.9779 17.7732L10.9838 17.7516L10.9716 17.7328L10.8514 17.5474C10.8513 17.5473 10.8512 17.5472 10.8512 17.5471C10.3605 16.7673 10.0999 15.866 10.0992 14.946C10.0993 12.2499 12.3078 10.052 15.0181 10.052C16.3315 10.052 17.567 10.5628 18.4923 11.4894L18.4925 11.4896C18.9506 11.9433 19.3136 12.4829 19.5605 13.0773C19.8074 13.6716 19.9333 14.3088 19.9309 14.9518L19.9309 14.9522C19.9428 17.6481 17.7346 19.84 15.0241 19.84C14.1407 19.84 13.2751 19.6024 12.5169 19.157C12.5169 19.157 12.5168 19.1569 12.5168 19.1569L12.3362 19.0491L12.3182 19.0383L12.2979 19.0436Z" fill="#FBFBFB" stroke="#FBFBFB" stroke-width="0.1"/>
</svg>
